PathFileType	4	(X/Y/Z)	C:/Users/opensim2020/Desktop/walking_exp_matlab/subject02_walking13_straight_03.trc	
DataRate	CameraRate	NumFrames	NumMarkers	Units	OrigDataRate	OrigDataStartFrame	OrigNumFrames	
100.00	100.00	7	41	mm	100.00	1344	129	
Frame#	Time	LFHD			RFHD			LBHD			RBHD			C7			T10			CLAV			STRN			RBAK			LSHO			LUPA			LELB			LFRM			LWRA			LWRB			LFIN			RSHO			RUPA			RELB			RFRM			RWRA			RWRB			RFIN			LASI			RASI			LPSI			RPSI			LTHI			LKNE			LTIB			LANK			LHEE			LTOE			RTHI			RKNE			RTIB			RANK			RHEE			RTOE			*39			*40			
		X1	Y1	Z1	X2	Y2	Z2	X3	Y3	Z3	X4	Y4	Z4	X5	Y5	Z5	X6	Y6	Z6	X7	Y7	Z7	X8	Y8	Z8	X9	Y9	Z9	X10	Y10	Z10	X11	Y11	Z11	X12	Y12	Z12	X13	Y13	Z13	X14	Y14	Z14	X15	Y15	Z15	X16	Y16	Z16	X17	Y17	Z17	X18	Y18	Z18	X19	Y19	Z19	X20	Y20	Z20	X21	Y21	Z21	X22	Y22	Z22	X23	Y23	Z23	X24	Y24	Z24	X25	Y25	Z25	X26	Y26	Z26	X27	Y27	Z27	X28	Y28	Z28	X29	Y29	Z29	X30	Y30	Z30	X31	Y31	Z31	X32	Y32	Z32	X33	Y33	Z33	X34	Y34	Z34	X35	Y35	Z35	X36	Y36	Z36	X37	Y37	Z37	X38	Y38	Z38	X39	Y39	Z39	X40	Y40	Z40	X41	Y41	Z41	

33	0.320	-1061.78284	-243.64743	1709.23767	-922.68634	-273.88245	1683.06299	-1100.91711	-373.67896	1642.66394	-966.34235	-414.89243	1616.14368	-1029.83923	-448.12448	1494.01355	-1028.46899	-494.84964	1217.34106	-1045.89075	-305.36810	1428.68079	-1035.46997	-249.96669	1258.97607	-964.06958	-501.44150	1318.53210	-1211.25476	-385.31259	1468.22412	-1282.47095	-455.33975	1276.67664	-1276.84998	-500.22409	1143.96814	-1286.78186	-544.54364	1020.45215	-1239.17981	-557.01727	884.32910	-1285.33093	-586.00647	902.85278	-1271.06885	-613.67902	839.41327	-847.93970	-367.45621	1463.81555	-755.54803	-362.33493	1277.03125	-731.34113	-309.58762	1137.02173	-730.68188	-224.20572	1048.44080	-768.77020	-120.14043	972.81464	-737.08765	-153.17969	938.85071	-739.27679	-85.96194	915.76141	-1158.15173	-251.44513	970.32983	-901.18127	-281.75616	937.78021	-1099.92407	-471.09225	1003.05566	-989.25702	-485.78482	997.91266	-1242.57019	-231.52399	675.09039	-1218.82593	-203.47005	474.23218	-1223.31506	-202.92157	278.89346	-1213.40027	-131.22707	68.60125	-1163.83337	-161.75151	36.81910	-1210.87341	27.60500	55.12608	-853.94525	-441.45795	650.69434	-888.39172	-500.28473	449.57480	-892.00159	-629.56067	309.86478	-930.37238	-739.69098	150.47885	-989.03851	-791.06799	119.82359	-922.81940	-627.48883	33.29267	-989.23853	-358.44669	1775.25525			 
34	0.330	-1063.19739	-230.42584	1709.96606	-924.40680	-261.34125	1683.42822	-1103.44604	-360.48401	1643.84644	-969.07349	-402.76492	1616.90759	-1032.98145	-435.89520	1493.85535	-1031.76318	-480.21689	1217.17810	-1048.55859	-292.35605	1429.76257	-1038.46887	-235.92990	1260.49561	-967.71631	-487.49875	1317.57483	-1214.21167	-371.99094	1468.94104	-1286.05518	-439.48666	1276.20203	-1279.78528	-483.15594	1143.05725	-1290.22437	-526.54358	1019.48169	-1243.24927	-538.76672	883.45984	-1289.11267	-567.32080	901.69043	-1275.29956	-595.09338	838.21088	-850.51471	-355.89673	1463.80042	-758.61377	-350.55911	1276.77966	-734.23224	-298.79297	1136.56714	-733.18201	-213.51308	1047.60950	-769.49634	-109.55595	971.55725	-738.83026	-142.96703	937.87524	-739.97784	-75.90926	914.61743	-1161.76135	-235.84703	972.00067	-905.67255	-263.91125	938.37408	-1103.56543	-454.45721	1003.71204	-992.57098	-470.00778	997.58331	-1244.54370	-215.77206	676.69086	-1221.66699	-188.35260	476.07297	-1226.99536	-190.49374	281.87085	-1216.21387	-123.92950	67.29662	-1167.48462	-158.63776	38.03673	-1208.76868	33.66545	50.32077	-855.72778	-423.49744	651.12939	-886.13629	-481.54062	450.33044	-890.46350	-615.30975	314.82950	-928.38403	-730.26208	159.32697	-987.82465	-781.40613	131.77202	-922.29999	-626.73981	33.14054	-990.92120	-345.35089	1775.99170			 
35	0.340	-1064.66846	-217.14958	1711.02014	-925.91809	-248.90019	1683.96082	-1105.68250	-347.26193	1645.43530	-971.46722	-390.06256	1618.19629	-1036.19080	-423.13992	1494.38318	-1034.85730	-465.65347	1217.13135	-1051.13257	-279.49805	1431.27197	-1041.47095	-221.86319	1262.44434	-971.42120	-474.60846	1317.45410	-1217.19482	-358.77649	1470.01013	-1289.57788	-423.31229	1275.96448	-1282.87927	-465.66595	1142.27087	-1293.88879	-507.87286	1018.50214	-1246.18750	-519.57349	881.92993	-1293.13013	-547.63867	900.47754	-1279.79419	-575.12500	836.89844	-852.94641	-344.05692	1463.86243	-761.73846	-339.24030	1276.31873	-737.26996	-288.82788	1136.27283	-735.36713	-203.38486	1047.07507	-771.08307	-99.24117	970.47620	-740.68610	-133.51059	936.58069	-740.67163	-65.91531	913.04791	-1166.19263	-219.77342	973.90137	-910.67560	-245.89970	939.42029	-1106.91187	-438.21964	1005.16467	-995.67493	-453.77808	997.74750	-1247.38171	-201.54443	677.96320	-1223.75879	-170.93178	478.93469	-1235.91309	-175.95311	285.53070	-1216.96716	-121.53324	67.49139	-1168.55249	-158.14989	39.08031	-1210.40527	34.85222	46.28139	-857.54120	-404.61768	651.40350	-884.22479	-460.17834	450.34607	-888.91693	-598.60748	319.62772	-926.76367	-718.57733	168.48289	-987.25665	-769.35126	144.32619	-922.28064	-625.45667	33.05911	-992.59216	-332.34592	1777.03979			 
36	0.350	-1065.96997	-203.95326	1712.32251	-927.93359	-236.29842	1684.83594	-1107.75378	-333.99078	1647.23718	-973.96509	-377.67282	1619.48706	-1039.03662	-410.34280	1495.69751	-1037.74121	-451.27536	1217.61816	-1053.66394	-266.64102	1433.10999	-1044.49292	-207.86046	1264.71594	-975.07849	-461.08218	1317.35461	-1220.09094	-345.57016	1471.45020	-1292.95935	-406.79843	1276.14209	-1286.40503	-447.68921	1141.83850	-1297.63953	-488.51529	1017.62531	-1250.88721	-498.94855	881.31195	-1297.28040	-526.86237	899.29565	-1284.52087	-553.71991	835.49585	-854.85608	-332.19455	1464.67395	-765.05341	-327.95239	1275.94275	-740.32294	-277.86594	1135.94971	-737.36377	-193.64102	1046.02600	-772.12714	-89.63661	968.71130	-742.41168	-124.59071	935.18970	-741.87701	-58.06802	910.43256	-1169.87476	-204.66936	975.48950	-915.99182	-228.53207	940.51294	-1110.03748	-422.27786	1007.26563	-997.95038	-437.49329	998.92926	-1250.65234	-188.72852	679.09576	-1224.44360	-153.32202	481.46106	-1241.95361	-161.39691	288.75388	-1215.94861	-121.34668	69.00077	-1167.97839	-157.22289	39.79684	-1213.14233	36.24365	44.27560	-859.40680	-384.78204	651.14935	-882.35004	-437.30331	449.91702	-887.30707	-579.39868	323.96173	-925.65967	-704.36768	177.64825	-986.87006	-754.39093	157.35719	-923.18195	-623.51776	33.07690	-994.16998	-319.28867	1778.41943			 
37	0.360	-1067.06091	-190.82571	1713.61646	-928.91290	-223.78107	1685.62195	-1109.82739	-320.78613	1649.10229	-975.77942	-364.79947	1620.64929	-1041.85291	-397.05402	1497.10059	-1040.59912	-437.14920	1218.26843	-1056.05164	-253.80661	1435.10242	-1047.31433	-193.83519	1267.12073	-978.41144	-447.21622	1317.24170	-1222.88379	-332.40884	1473.02173	-1295.90942	-390.10559	1276.36890	-1289.98950	-429.43030	1141.72595	-1301.53442	-468.48636	1017.16229	-1254.35925	-477.31104	880.17731	-1301.66455	-504.91626	898.18665	-1289.37659	-530.87164	834.05273	-856.95404	-320.04938	1465.39978	-768.21063	-316.68158	1276.33887	-743.48749	-267.60706	1135.96838	-739.87939	-184.38544	1045.23853	-773.20825	-80.90514	966.65131	-744.18237	-116.38339	933.56586	-742.81451	-49.92664	908.21216	-1173.89307	-189.65555	977.08154	-921.50293	-211.93335	941.71753	-1112.86072	-406.90594	1009.51874	-999.69177	-420.70709	1000.18817	-1253.14148	-176.67105	679.86108	-1224.68713	-138.22090	482.60864	-1244.43298	-150.02364	290.10632	-1215.27332	-118.94070	70.03133	-1167.91565	-156.12358	40.48925	-1212.82324	37.98642	41.75473	-861.09851	-364.27762	650.30804	-881.64343	-412.70364	448.88278	-885.72632	-558.27704	327.64423	-924.35638	-687.24127	185.98009	-986.29688	-737.12732	170.26350	-924.71368	-621.28857	33.01270	-995.70276	-306.11462	1779.96179			 
38	0.370	-1068.28479	-177.71712	1714.88037	-930.71912	-211.36528	1686.60315	-1111.80603	-307.61523	1650.83081	-978.45740	-352.55243	1621.97363	-1044.16260	-384.18558	1498.50354	-1043.31958	-423.12720	1218.92639	-1058.31445	-240.75121	1437.00879	-1049.91846	-179.78032	1269.34619	-981.48938	-434.11758	1317.74878	-1225.63745	-319.15811	1474.87097	-1299.02893	-373.32693	1277.02808	-1293.75659	-410.90005	1141.97168	-1305.61365	-447.63977	1016.66522	-1258.70374	-454.47232	879.53497	-1306.33362	-481.85971	897.22717	-1294.44092	-506.64301	832.51904	-859.14990	-307.54111	1466.35193	-771.73859	-306.54840	1276.79932	-746.78424	-257.42111	1136.24573	-742.14093	-175.37808	1044.19690	-774.71350	-72.58311	964.70520	-745.98950	-108.98000	931.88953	-744.23267	-43.54775	905.33887	-1177.69360	-175.12672	978.59619	-926.90253	-195.94505	942.94324	-1115.53845	-392.01767	1011.77142	-1000.44202	-405.39236	1001.94348	-1254.93372	-164.32198	680.27954	-1225.49194	-126.16606	482.92072	-1244.76245	-142.28659	290.38574	-1214.87549	-116.36983	69.87335	-1167.39026	-155.40921	40.45775	-1210.98511	39.48806	39.99319	-862.82495	-342.79919	648.77917	-881.55573	-386.88409	447.11069	-884.86218	-535.04865	330.86829	-923.03815	-668.70935	194.15817	-985.24060	-718.70160	183.16978	-926.13141	-616.64362	35.23844	-997.15521	-293.08664	1781.08228			 
39	0.380	-1069.46936	-164.66861	1716.05872	-932.01654	-199.12083	1687.24365	-1113.64453	-294.47665	1652.35474	-980.48645	-340.05270	1623.01050	-1046.43274	-371.16583	1499.53040	-1046.02441	-409.26498	1219.69409	-1060.43030	-227.45827	1438.77612	-1052.36316	-165.71733	1271.40918	-984.50293	-420.78018	1318.34741	-1227.76245	-305.94791	1476.55750	-1302.31042	-356.48087	1278.12073	-1297.75305	-392.09387	1142.52344	-1310.05457	-426.05823	1016.62299	-1263.37415	-430.42645	879.16681	-1311.19714	-457.83282	896.35364	-1299.72534	-481.03122	831.06012	-861.49518	-294.96478	1467.68921	-775.07074	-296.09140	1277.31396	-750.03882	-247.60014	1136.95435	-744.94305	-167.01750	1043.78271	-776.02863	-64.82075	962.26538	-747.55695	-102.06001	930.26331	-745.01819	-36.90604	902.45801	-1181.22534	-160.88272	980.39612	-932.35577	-180.76466	944.11566	-1117.72778	-377.58200	1013.79730	-1001.27344	-390.04523	1003.36218	-1256.39868	-151.40979	680.54523	-1226.46082	-116.32352	482.47794	-1244.51147	-136.69188	290.32629	-1214.32874	-115.19617	69.90765	-1167.00037	-155.00380	40.68590	-1211.30237	40.30578	38.77705	-864.43494	-321.02097	646.68176	-881.16046	-359.93866	445.29053	-884.47577	-510.51013	333.70822	-922.38605	-648.35028	202.21448	-984.89941	-699.13159	195.59610	-927.52173	-608.04315	40.67809	-998.69592	-280.38260	1782.51636			 
